<svg xmlns="http://www.w3.org/2000/svg" viewBox="0 0 512 512" width="512" height="512">
  <defs>
    <linearGradient id="grad2" x1="0%" y1="0%" x2="100%" y2="100%">
      <stop offset="0%" style="stop-color:#f0f4ff;stop-opacity:1" />
      <stop offset="100%" style="stop-color:#d0e0ff;stop-opacity:1" />
    </linearGradient>
  </defs>
  <circle cx="256" cy="256" r="240" fill="url(#grad2)" stroke="#2e69ff" stroke-width="8"/>
  <path d="M256 160c-53 0-96 43-96 96 0 53 43 96 96 96s96-43 96-96c0-53-43-96-96-96zm0 160c-35.3 0-64-28.7-64-64s28.7-64 64-64 64 28.7 64 64-28.7 64-64 64z" fill="#2e69ff"/>
  <path d="M192 256c0-40 32-72 72-72s72 32 72 72" stroke="#fff" stroke-width="12" fill="none" stroke-linecap="round"/>
  <rect x="240" y="240" width="32" height="64" rx="8" fill="#fff"/>
  <path d="M352 256v64c0 18-14 32-32 32h-12" stroke="#2e69ff" stroke-width="12" stroke-linecap="round" fill="none"/>
  <circle cx="290" cy="352" r="16" fill="#2e69ff"/>
</svg>
